# AST/ASF file generated using VICON BodyLanguage
# -----------------------------------------------
:version 1.10
:name VICON
:units
  mass 1.0
  length 0.45
  angle deg
:documentation
   .ast/.asf automatically generated from VICON data using
   VICON BodyBuilder and BodyLanguage model FoxedUp or BRILLIANT.MOD
:root
   order TX TY TZ RX RY RZ
   axis XYZ
   position 0 0 0  
   orientation 0 0 0 
:bonedata
  begin
     id 1 
     name lhipjoint
     direction 0.604623 -0.733026 0.311616 
     length 2.56391 
     axis 0 0 0  XYZ
  end
  begin
     id 2 
     name lfemur
     direction 0.34202 -0.939693 0  
     length 7.75596  
     axis 0 0 20  XYZ
    dof rx ry rz
    limits (-160.0 20.0)
           (-70.0 70.0)
           (-60.0 70.0)
  end
  begin
     id 3 
     name ltibia
     direction 0.34202 -0.939693 0   
     length 7.63697   
     axis 0 0 20   XYZ
    dof rx
    limits (-10.0 170.0)
  end
  begin
     id 4 
     name lfoot
     direction 0.048038 -0.131983 0.990087   
     length 1.94388   
     axis -90 7.62852e-016 20   XYZ
    dof rx rz
    limits (-45.0 90.0)
           (-70.0 20.0)
  end
  begin
     id 5 
     name ltoes
     direction 1.53565e-011 -4.21929e-011 1   
     length 0.984801   
     axis -90 7.62852e-016 20   XYZ
    dof rx
    limits (-90.0 20.0)
  end
  begin
     id 6 
     name rhipjoint
     direction -0.609162 -0.729836 0.31026   
     length 2.57511  
     axis 0 0 0  XYZ 
  end
  begin
     id 7 
     name rfemur
     direction -0.34202 -0.939693 0   
     length 7.60772   
     axis 0 0 -20   XYZ
    dof rx ry rz
    limits (-160.0 20.0)
           (-70.0 70.0)
           (-70.0 60.0)
  end
  begin
     id 8 
     name rtibia
     direction -0.34202 -0.939693 0   
     length 7.68497   
     axis 0 0 -20   XYZ
    dof rx
    limits (-10.0 170.0)
 end
 begin
     id 9 
     name rfoot
     direction -0.0969806 -0.266452 0.958957   
     length 2.01398  
     axis -90 -7.62852e-016 -20   XYZ
    dof rx rz
    limits (-45.0 90.0)
           (-20.0 70.0)
  end
  begin
     id 10 
     name rtoes
     direction -1.53552e-011 -4.21869e-011 1   
     length 1.00896   
     axis -90 -7.62852e-016 -20   XYZ
    dof rx
    limits (-90.0 20.0)
  end
  begin
     id 11 
     name lowerback
     direction 0.0305179 0.993923 -0.10576   
     length 2.09077   
     axis 0 0 0   XYZ
    dof rx ry rz
    limits (-20.0 45.0)
           (-30.0 30.0)
           (-30.0 30.0)
  end
  begin
     id 12 
     name upperback
     direction -0.0137909 0.999867 0.00873764   
     length 2.08918   
     axis 0 0 0   XYZ
    dof rx ry rz
    limits (-20.0 45.0)
           (-30.0 30.0)
           (-30.0 30.0)
  end
  begin
     id 13 
     name thorax
     direction -0.0278536 0.997917 0.0581839   
     length 2.11939   
     axis 0 0 0   XYZ
    dof rx ry rz
    limits (-20.0 45.0)
           (-30.0 30.0)
           (-30.0 30.0)
  end
  begin
     id 14 
     name lowerneck
     direction 0.0138689 0.999837 -0.0116016   
     length 1.74353   
     axis 0 0 0   XYZ
    dof rx ry rz
    limits (-20.0 45.0)
           (-30.0 30.0)
           (-30.0 30.0)
  end
  begin
     id 15 
     name upperneck
     direction -0.00992078 0.999667 0.0238149   
     length 1.71734   
     axis 0 0 0   XYZ
    dof rx ry rz
    limits (-20.0 45.0)
           (-30.0 30.0)
           (-30.0 30.0)
  end
  begin
     id 16
     name head
     direction -0.00530555 0.999941 0.00944937  
     length 1.78249  
     axis 0 0 0   XYZ
    dof rx ry rz
    limits (-20.0 45.0)
           (-30.0 30.0)
           (-30.0 30.0)
  end
  begin
     id 17 
     name lclavicle
     direction 0.929165 0.366864 0.0454227  
     length 3.65686  
     axis 0 0 0   XYZ
    dof ry rz
    limits (-20.0 10.0)
           (0.0 20.0)
  end
  begin
     id 18 
     name lhumerus
     direction 1 -4.4897e-011 3.05413e-018   
     length 5.15218   
     axis -180 -30 -90   XYZ
    dof rx ry rz
    limits (-60.0 90.0)
           (-90.0 90.0)
           (-90.0 90.0)
  end
  begin
     id 19
     name lradius
     direction 1 -4.48963e-011 5.40022e-027   
     length 3.49459   
     axis -180 -30 -90   XYZ
    dof rx
    limits (-10.0 170.0)
  end
  begin
     id 20
     name lwrist
     direction 1 -4.48966e-011 9.79369e-027   
     length 1.7473   
     axis -4.67603e-015 90 90   XYZ
    dof ry
    limits (-180.0 0.0)
 end
  begin
     id 21 
     name lhand
     direction 1 -4.48996e-011 1.9593e-026   
     length 0.512466   
     axis -1.24987e-014 90 90   XYZ
    dof rx rz
    limits (-90.0 90.0)
           (-45.0 45.0)
  end
  begin
     id 22 
     name lfingers
     direction 1 -4.48931e-011 3.91616e-026   
     length 0.413163   
     axis -2.49979e-014 90 90   XYZ
    dof rx
    limits (0.0 90.0)
  end
  begin
     id 23
     name lthumb
     direction 0.707107 -6.34959e-011 0.707107   
     length 0.593222   
     axis -90 45 5.69224e-014   XYZ
    dof rx rz
    limits (-45.0 45.0)
           (-45.0 45.0)
  end
  begin
     id 24 
     name rclavicle
     direction -0.951469 0.307727 0.00346571   
     length 3.42864  
     axis 0 0 0   XYZ 
    dof ry rz
    limits (-10.0 20.0)
           (-20.0 0.0)
  end
  begin
     id 25 
     name rhumerus
     direction -1 -4.48967e-011 2.58643e-027  
     length 5.44344   
     axis -180 30 90   XYZ
    dof rx ry rz
    limits (-90.0 60.0)
           (-90.0 90.0)
           (-90.0 90.0)
  end
  begin
     id 26 
     name rradius
     direction -1 -4.48973e-011 4.26485e-028   
     length 3.58403   
     axis -180 30 90   XYZ
    dof rx
    limits (-10.0 170.0)
  end
  begin
     id 27 
     name rwrist
     direction -1 -4.48962e-011 9.79331e-027   
     length 1.79202   
     axis -4.67603e-015 -90 -90   XYZ
    dof ry
    limits (-180.0 0.0)
  end
  begin
     id 28
     name rhand
     direction -1 -4.48975e-011 1.95891e-026   
     length 0.34249   
     axis -1.24987e-014 -90 -90   XYZ
    dof rx rz
    limits (-90.0 90.0)
           (-45.0 45.0)
  end
  begin
     id 29
     name rfingers
     direction -1 -4.48893e-011 3.9147e-026   
     length 0.276124   
     axis -2.49979e-014 -90 -90   XYZ
    dof rx
    limits (0.0 90.0)
  end
  begin
     id 30
     name rthumb
     direction -0.707107 -6.34898e-011 0.707107   
     length 0.39646   
     axis -90 -45 -5.69224e-014   XYZ
    dof rx rz
    limits (-45.0 45.0)
           (-45.0 45.0)
  end
:hierarchy
  begin
    root lhipjoint rhipjoint lowerback
    lhipjoint lfemur
    lfemur ltibia
    ltibia lfoot
    lfoot ltoes
    rhipjoint rfemur
    rfemur rtibia
    rtibia rfoot
    rfoot rtoes
    lowerback upperback
    upperback thorax
    thorax lowerneck lclavicle rclavicle
    lowerneck upperneck
    upperneck head
    lclavicle lhumerus
    lhumerus lradius
    lradius lwrist
    lwrist lhand lthumb
    lhand lfingers
    rclavicle rhumerus
    rhumerus rradius
    rradius rwrist
    rwrist rhand rthumb
    rhand rfingers
  end

#!OML:ASF H:\charlestonDancing\Project 1\Capture day 1\Session 1\femaleDancer.ASF
:FULLY-SPECIFIED
:DEGREES
263
root -12.5239 17.4894 -2.97447 -182.19 154.937 -547.223
lowerback 13.7325 4.35831 6.63515
upperback 4.34221 6.6843 0.0378948
thorax -2.30837 3.37258 -4.66393
lowerneck 8.14802 9.61441 13.7668
upperneck 0.270528 13.9237 -6.9395
head 0.222884 7.09103 -4.34721
rclavicle -7.26558e-014 3.95581e-014
rhumerus -20.0874 34.3241 -90.345
rradius 70.3621
rwrist 2.85256
rhand -22.4314 -30.26
rfingers 7.12502
rthumb 3.99216 -60.2023
lclavicle -7.26558e-014 3.95581e-014
lhumerus -24.101 21.4048 60.1799
lradius 87.8184
lwrist 28.8465
lhand -17.2815 32.2606
lfingers 7.12502
lthumb 8.96374 62.0502
rfemur -11.0525 -3.5802 28.5969
rtibia 37.6398
rfoot -22.7876 -10.4963
rtoes -21.064
lfemur -28.9125 -0.236578 -9.55091
ltibia 56.9425
lfoot -8.83721 0.348568
ltoes -41.7027
264
root -12.5853 17.4081 -2.99306 -182.587 155.528 -547.536
lowerback 13.8022 4.31669 7.26628
upperback 4.37807 6.721 0.129206
thorax -2.23816 3.39707 -4.92374
lowerneck 8.77494 9.83546 13.7013
upperneck 0.0617484 14.2879 -7.07425
head 0.105567 7.27963 -4.41243
rclavicle 9.67584e-014 -1.49089e-014
rhumerus -19.8021 35.0233 -91.21
rradius 68.6984
rwrist 1.84966
rhand -22.2152 -30.5788
rfingers 7.12502
rthumb 4.20095 -60.5171
lclavicle 9.67584e-014 -1.49089e-014
lhumerus -25.3407 21.7048 59.8985
lradius 87.6964
lwrist 28.6556
lhand -17.0487 31.7006
lfingers 7.12502
lthumb 9.18838 61.4804
rfemur -10.6365 -3.22983 29.0265
rtibia 37.7482
rfoot -24.2335 -9.21548
rtoes -16.6552
lfemur -29.7307 0.119459 -8.89897
ltibia 58.8419
lfoot -8.30846 0.24881
ltoes -41.4464
265
root -12.6583 17.3522 -3.01022 -183.113 156.049 -547.776
lowerback 14.0322 4.28496 7.65982
upperback 4.44646 6.75402 0.270937
thorax -2.25488 3.41552 -5.01422
lowerneck 9.42685 10.0391 13.7443
upperneck -0.162344 14.64 -7.30856
head -0.00571251 7.46504 -4.52565
rclavicle 2.08724e-014 5.96354e-015
rhumerus -19.6677 35.6376 -92.0371
rradius 66.9616
rwrist 1.00349
rhand -21.5944 -30.3065
rfingers 7.12502
rthumb 4.80045 -60.2321
lclavicle 2.08724e-014 5.96354e-015
lhumerus -26.7369 21.9793 59.7558
lradius 87.7645
lwrist 28.7679
lhand -16.6699 31.3035
lfingers 7.12502
lthumb 9.55382 61.0669
rfemur -10.487 -3.08564 29.4404
rtibia 37.9803
rfoot -24.5335 -8.89979
rtoes -16.6446
lfemur -30.3793 0.563446 -8.28762
ltibia 60.6271
lfoot -7.23599 0.0230695
ltoes -40.557
266
root -12.7377 17.3195 -3.03157 -183.979 156.486 -548.319
lowerback 14.5072 4.14326 8.2427
upperback 4.59494 6.69409 0.507496
thorax -2.31965 3.38861 -5.11687
lowerneck 9.78472 10.2932 13.9782
upperneck -0.203486 15.0432 -7.66555
head 0.0135859 7.6795 -4.67463
rclavicle 1.42777e-013 1.15295e-014
rhumerus -19.509 36.3051 -92.7928
rradius 65.0479
rwrist 0.667226
rhand -20.8054 -29.9563
rfingers 7.12502
rthumb 5.56226 -59.8633
lclavicle 1.42777e-013 1.15295e-014
lhumerus -28.0885 22.3647 59.6045
lradius 87.8474
lwrist 29.1335
lhand -16.0513 31.326
lfingers 7.12502
lthumb 10.1507 61.0612
rfemur -9.95849 -3.49174 30.146
rtibia 37.9319
rfoot -24.4166 -8.03592
rtoes -15.1553
lfemur -30.8138 1.02086 -7.35048
ltibia 62.3308
lfoot -5.73954 -0.182504
ltoes -38.8917
267
root -12.8025 17.304 -3.05254 -185.375 157.022 -549.431
lowerback 15.2157 3.86795 9.37024
upperback 4.8581 6.57152 0.923484
thorax -2.35197 3.33836 -5.33486
lowerneck 9.87308 10.5205 14.8274
upperneck 0.0204213 15.4462 -8.68542
head 0.255093 7.9126 -5.0714
rclavicle -9.67584e-014 4.53229e-014
rhumerus -19.3167 37.1572 -93.4175
rradius 62.9207
rwrist 0.859584
rhand -20.1778 -29.7124
rfingers 7.12502
rthumb 6.16816 -59.6026
lclavicle -9.67584e-014 4.53229e-014
lhumerus -29.4311 22.9134 59.4243
lradius 87.8189
lwrist 29.4475
lhand -15.4551 31.7939
lfingers 7.12502
lthumb 10.7258 61.5001
rfemur -8.86916 -4.02286 31.3302
rtibia 37.6102
rfoot -24.2641 -6.9868
rtoes -13.2607
lfemur -30.8979 1.41563 -5.81121
ltibia 63.965
lfoot -3.99537 -0.311881
ltoes -38.1811
